<svg width="300" height="130" viewBox="0 0 300 130" fill="none" xmlns="http://www.w3.org/2000/svg">
<path d="M3 9C3 5.68629 5.68629 3 9 3H293C296.314 3 299 5.68629 299 9V20H3V9Z" fill="#D6D3D1"/>
<rect x="14.2857" y="9" width="5.71429" height="5.71429" rx="2.85714" fill="white"/>
<rect x="25.7143" y="9" width="5.71429" height="5.71429" rx="2.85714" fill="white"/>
<rect x="37.1428" y="9" width="5.71429" height="5.71429" rx="2.85714" fill="white"/>
<path d="M33.0822 100.748C29.9542 100.748 27.0756 100.227 24.4462 99.184C21.8622 98.1413 19.7996 96.6227 18.2582 94.628C16.7622 92.588 16.0142 90.1853 16.0142 87.42C16.0142 83.1133 17.3062 79.396 19.8902 76.268C20.6609 75.316 21.4996 74.4093 22.4062 73.548C23.3129 72.6867 24.0382 72.256 24.5822 72.256C25.4436 72.256 25.8742 72.6413 25.8742 73.412C25.8742 73.7747 25.7836 74.092 25.6022 74.364C23.3356 76.404 21.7036 78.376 20.7062 80.28C19.7542 82.184 19.2782 84.2467 19.2782 86.468C19.2782 90.276 20.6156 93.1093 23.2902 94.968C26.0102 96.8267 29.3876 97.756 33.4222 97.756C36.0062 97.756 38.2729 97.0987 40.2222 95.784C42.2169 94.424 43.7356 92.6107 44.7782 90.344C45.8662 88.0773 46.4102 85.6293 46.4102 83C46.4102 79.0107 44.5742 72.7773 40.9022 64.3C37.2302 55.732 35.3942 49.7707 35.3942 46.416C35.3942 42.9253 36.2329 40.024 37.9102 37.712C39.5876 35.4 41.9902 34.244 45.1182 34.244C47.5209 34.244 49.5156 34.856 51.1022 36.08C52.7342 37.2587 53.9356 38.6187 54.7062 40.16C55.4769 41.656 55.8622 42.88 55.8622 43.832C55.8622 44.2853 55.6582 44.6933 55.2502 45.056C54.8876 45.3733 54.5022 45.532 54.0942 45.532C53.4142 45.532 53.0062 45.124 52.8702 44.308C52.5529 42.2227 51.6916 40.5 50.2862 39.14C48.8809 37.78 47.1582 37.1 45.1182 37.1C43.0782 37.1 41.4916 37.8253 40.3582 39.276C39.2249 40.6813 38.6582 42.4493 38.6582 44.58C38.6582 47.572 39.1116 50.496 40.0182 53.352C40.9249 56.1627 42.3076 59.7213 44.1662 64.028C45.9796 68.1533 47.3396 71.6667 48.2462 74.568C49.1982 77.424 49.6742 80.348 49.6742 83.34C49.6742 86.2413 49.1076 89.0293 47.9742 91.704C46.8409 94.3333 45.0276 96.5093 42.5342 98.232C40.0409 99.9093 36.8902 100.748 33.0822 100.748ZM55.0972 127.88C54.4172 127.88 54.0319 127.427 53.9412 126.52C55.3012 121.352 56.4799 116.184 57.4772 111.016L59.5172 100.34L61.5572 89.664L62.1012 86.808C63.9146 77.3787 65.1386 71.0773 65.7732 67.904V66.408C65.7732 65.9547 65.9772 65.524 66.3852 65.116C66.7932 64.708 67.2692 64.504 67.8132 64.504C68.3119 64.504 68.6972 64.708 68.9692 65.116C69.2412 65.4787 69.3772 65.8867 69.3772 66.34C69.3772 66.9747 69.2639 67.632 69.0372 68.312L68.7652 69.196C68.6746 69.5587 68.6292 69.808 68.6292 69.944L67.6772 74.84C70.9412 68.6293 74.4319 65.524 78.1492 65.524C80.0986 65.524 81.5039 66.1133 82.3652 67.292C83.2719 68.4253 83.7252 70.148 83.7252 72.46C83.7252 76.812 83.1132 81.1413 81.8892 85.448C80.6652 89.7547 78.8972 93.3813 76.5852 96.328C74.2279 99.3653 71.4172 100.884 68.1532 100.884C66.8839 100.884 65.8639 100.612 65.0932 100.068C64.3679 99.5693 63.7786 98.6853 63.3252 97.416L62.5092 101.428C61.4212 106.415 60.6279 110.177 60.1292 112.716C59.0412 118.247 57.9986 122.848 57.0012 126.52C56.5932 127.427 55.9586 127.88 55.0972 127.88ZM68.6292 97.688C70.9866 97.688 73.1852 96.192 75.2252 93.2C77.7639 89.3467 79.4412 84.292 80.2572 78.036C80.4839 76.0867 80.5972 74.4093 80.5972 73.004C80.5972 70.0573 79.8719 68.584 78.4212 68.584C76.9706 68.584 75.3159 69.6267 73.4572 71.712C70.9186 74.568 68.8332 78.0133 67.2012 82.048C65.5692 86.0373 64.7532 89.5053 64.7532 92.452C64.7532 95.9427 66.0452 97.688 68.6292 97.688ZM89.7071 100.68C88.1658 100.68 87.3951 99.4333 87.3951 96.94C87.3951 96.3053 87.5084 95.7387 87.7351 95.24C87.9618 94.4693 88.1658 93.5853 88.3471 92.588L89.3671 88.032L90.7271 82.048C91.1804 79.8267 91.7244 77.3333 92.3591 74.568C92.4498 74.296 92.5404 73.8427 92.6311 73.208C93.0844 71.2587 93.3111 70.1253 93.3111 69.808V69.128C93.3111 68.7653 93.1524 68.0173 92.8351 66.884C92.8351 66.34 93.0164 65.8413 93.3791 65.388C93.7871 64.9347 94.2631 64.708 94.8071 64.708C95.3058 64.708 95.7364 65.048 96.0991 65.728C96.4618 66.408 96.6431 67.156 96.6431 67.972C96.6431 68.8787 95.6004 73.7747 93.5151 82.66C91.4298 91.5453 90.3871 96.26 90.3871 96.804C90.3871 97.3027 90.6138 97.552 91.0671 97.552C91.2938 97.552 91.7018 97.2573 92.2911 96.668C92.8351 96.124 93.2884 95.852 93.6511 95.852C94.3764 95.852 94.7391 96.3053 94.7391 97.212C94.7391 97.756 94.4218 98.3 93.7871 98.844C93.1524 99.388 92.4271 99.8187 91.6111 100.136C90.7951 100.499 90.1604 100.68 89.7071 100.68ZM96.5751 59.608C95.8498 59.608 95.3058 59.5173 94.9431 59.336H94.6711C93.3564 59.336 92.6991 58.5653 92.6991 57.024C92.6991 56.2533 93.0164 55.5507 93.6511 54.916C94.3311 54.2813 95.0564 53.964 95.8271 53.964C96.5978 53.964 97.3231 54.236 98.0031 54.78C98.7738 55.5507 99.1591 56.2987 99.1591 57.024C99.1591 57.704 98.8871 58.316 98.3431 58.86C97.8444 59.3587 97.2551 59.608 96.5751 59.608ZM101.87 94.968C101.87 94.3787 102.029 93.9707 102.346 93.744C102.663 93.5173 103.071 93.3587 103.57 93.268C103.978 93.268 104.295 93.404 104.522 93.676C104.794 93.948 105.111 94.3787 105.474 94.968C105.837 95.6027 106.131 96.056 106.358 96.328C106.63 96.5547 107.083 96.668 107.718 96.668C109.169 96.668 110.347 96.2147 111.254 95.308C112.206 94.4013 112.682 93.336 112.682 92.112C112.682 90.7973 112.41 89.4147 111.866 87.964C111.322 86.5133 110.483 84.7 109.35 82.524C107.083 78.444 105.95 75.2027 105.95 72.8C105.95 70.3973 106.539 68.4707 107.718 67.02C108.942 65.5693 110.597 64.844 112.682 64.844C114.133 64.844 115.515 65.252 116.83 66.068C118.145 66.884 118.802 67.904 118.802 69.128C118.802 70.4427 118.258 71.1 117.17 71.1C116.853 71.1 116.581 71.0093 116.354 70.828C116.173 70.6467 115.991 70.4427 115.81 70.216C115.629 69.944 115.493 69.7627 115.402 69.672C114.586 68.72 113.679 68.244 112.682 68.244C110.461 68.244 109.35 69.536 109.35 72.12C109.35 73.5253 109.622 74.9533 110.166 76.404C110.71 77.8547 111.526 79.6907 112.614 81.912C113.657 84.088 114.45 85.9013 114.994 87.352C115.538 88.8027 115.81 90.1853 115.81 91.5C115.81 93.812 115.107 95.7613 113.702 97.348C112.297 98.9347 110.325 99.8867 107.786 100.204C106.199 100.204 104.817 99.66 103.638 98.572C102.459 97.4387 101.87 96.2373 101.87 94.968ZM129.858 100.68C128.408 100.68 127.274 100.453 126.458 100C125.642 99.5013 124.985 98.7533 124.486 97.756C123.534 95.988 123.058 93.8573 123.058 91.364C123.058 87.012 123.716 82.8867 125.03 78.988C126.345 75.044 128.136 71.7347 130.402 69.06C132.578 66.5213 134.958 65.252 137.542 65.252C138.902 65.252 139.968 65.8187 140.738 66.952C141.554 68.04 141.962 69.3773 141.962 70.964C141.962 73.7293 141.237 76.132 139.786 78.172C138.381 80.212 136.477 81.912 134.074 83.272C131.989 84.496 129.45 85.72 126.458 86.944L126.322 91.84C126.322 95.648 127.478 97.552 129.79 97.552C130.742 97.552 131.649 97.3707 132.51 97.008C133.417 96.6453 134.392 96.1467 135.434 95.512C136.658 94.7867 137.52 94.424 138.018 94.424C138.789 94.424 139.174 94.832 139.174 95.648C139.174 96.2373 138.608 96.94 137.474 97.756C136.386 98.572 135.094 99.2747 133.598 99.864C132.102 100.408 130.856 100.68 129.858 100.68ZM127.002 83.68C130.04 82.456 132.352 81.368 133.938 80.416C135.525 79.464 136.726 78.2627 137.542 76.812C138.404 75.3613 138.834 73.4573 138.834 71.1C138.834 69.332 138.086 68.448 136.59 68.448C135.276 68.448 133.734 69.6493 131.966 72.052C130.108 74.4547 128.612 77.6053 127.478 81.504C127.161 82.592 127.002 83.3173 127.002 83.68ZM144.901 94.968C144.901 94.3787 145.06 93.9707 145.377 93.744C145.695 93.5173 146.103 93.3587 146.601 93.268C147.009 93.268 147.327 93.404 147.553 93.676C147.825 93.948 148.143 94.3787 148.505 94.968C148.868 95.6027 149.163 96.056 149.389 96.328C149.661 96.5547 150.115 96.668 150.749 96.668C152.2 96.668 153.379 96.2147 154.285 95.308C155.237 94.4013 155.713 93.336 155.713 92.112C155.713 90.7973 155.441 89.4147 154.897 87.964C154.353 86.5133 153.515 84.7 152.381 82.524C150.115 78.444 148.981 75.2027 148.981 72.8C148.981 70.3973 149.571 68.4707 150.749 67.02C151.973 65.5693 153.628 64.844 155.713 64.844C157.164 64.844 158.547 65.252 159.861 66.068C161.176 66.884 161.833 67.904 161.833 69.128C161.833 70.4427 161.289 71.1 160.201 71.1C159.884 71.1 159.612 71.0093 159.385 70.828C159.204 70.6467 159.023 70.4427 158.841 70.216C158.66 69.944 158.524 69.7627 158.433 69.672C157.617 68.72 156.711 68.244 155.713 68.244C153.492 68.244 152.381 69.536 152.381 72.12C152.381 73.5253 152.653 74.9533 153.197 76.404C153.741 77.8547 154.557 79.6907 155.645 81.912C156.688 84.088 157.481 85.9013 158.025 87.352C158.569 88.8027 158.841 90.1853 158.841 91.5C158.841 93.812 158.139 95.7613 156.733 97.348C155.328 98.9347 153.356 99.8867 150.817 100.204C149.231 100.204 147.848 99.66 146.669 98.572C145.491 97.4387 144.901 96.2373 144.901 94.968ZM172.618 100.272C171.031 100.272 169.83 99.864 169.014 99.048C168.243 98.232 167.858 96.7587 167.858 94.628C167.858 93.4493 167.994 92.0893 168.266 90.548L168.878 86.672L169.626 83.476L170.034 81.64L170.918 77.9C171.008 77.3107 171.212 76.3587 171.53 75.044L171.87 73.684L172.482 70.76L172.89 68.72C171.122 68.72 169.49 68.8333 167.994 69.06C167.087 68.924 166.634 68.5387 166.634 67.904C166.634 67.4507 166.815 67.02 167.178 66.612C167.54 66.204 167.971 65.9773 168.47 65.932L173.366 66.068C173.366 66.068 173.479 65.5013 173.706 64.368C173.796 63.4613 173.978 62.4187 174.25 61.24C174.522 60.0613 174.862 59.0187 175.27 58.112C175.678 57.1147 176.267 56.616 177.038 56.616C177.763 56.616 178.126 57.024 178.126 57.84V58.248C177.944 59.1547 177.786 59.812 177.65 60.22L176.494 66H181.39C183.112 66 184.178 66.136 184.586 66.408C184.948 66.68 185.13 67.02 185.13 67.428C185.13 68.1533 184.79 68.6293 184.11 68.856C183.475 69.0373 182.364 69.128 180.778 69.128C179.327 69.128 177.718 69.06 175.95 68.924C175.678 70.42 174.748 74.568 173.162 81.368C171.711 87.5333 170.986 91.432 170.986 93.064C170.986 94.832 171.19 95.988 171.598 96.532C171.824 96.8947 172.3 97.076 173.026 97.076C173.66 97.076 174.204 96.9173 174.658 96.6C175.156 96.2373 175.655 95.7613 176.154 95.172C176.652 94.5373 177.083 94.0613 177.446 93.744C177.808 93.4267 178.194 93.268 178.602 93.268C179.508 93.268 179.962 93.7213 179.962 94.628C179.962 95.0813 179.508 95.8293 178.602 96.872C177.695 97.9147 176.834 98.7533 176.018 99.388C175.292 99.9773 174.159 100.272 172.618 100.272ZM194.405 100.68C192.955 100.68 191.821 100.453 191.005 100C190.189 99.5013 189.532 98.7533 189.033 97.756C188.081 95.988 187.605 93.8573 187.605 91.364C187.605 87.012 188.263 82.8867 189.577 78.988C190.892 75.044 192.683 71.7347 194.949 69.06C197.125 66.5213 199.505 65.252 202.089 65.252C203.449 65.252 204.515 65.8187 205.285 66.952C206.101 68.04 206.509 69.3773 206.509 70.964C206.509 73.7293 205.784 76.132 204.333 78.172C202.928 80.212 201.024 81.912 198.621 83.272C196.536 84.496 193.997 85.72 191.005 86.944L190.869 91.84C190.869 95.648 192.025 97.552 194.337 97.552C195.289 97.552 196.196 97.3707 197.057 97.008C197.964 96.6453 198.939 96.1467 199.981 95.512C201.205 94.7867 202.067 94.424 202.565 94.424C203.336 94.424 203.721 94.832 203.721 95.648C203.721 96.2373 203.155 96.94 202.021 97.756C200.933 98.572 199.641 99.2747 198.145 99.864C196.649 100.408 195.403 100.68 194.405 100.68ZM191.549 83.68C194.587 82.456 196.899 81.368 198.485 80.416C200.072 79.464 201.273 78.2627 202.089 76.812C202.951 75.3613 203.381 73.4573 203.381 71.1C203.381 69.332 202.633 68.448 201.137 68.448C199.823 68.448 198.281 69.6493 196.513 72.052C194.655 74.4547 193.159 77.6053 192.025 81.504C191.708 82.592 191.549 83.3173 191.549 83.68ZM226.788 101.224C226.244 101.224 225.746 100.589 225.292 99.32C224.884 98.0053 224.68 96.804 224.68 95.716C224.68 94.8093 224.816 93.744 225.088 92.52C224.136 95.3307 222.935 97.3933 221.484 98.708C220.034 99.9773 218.175 100.612 215.908 100.612C213.778 100.612 212.168 99.7507 211.08 98.028C209.992 96.26 209.448 94.288 209.448 92.112C209.448 85.3573 210.718 79.6227 213.256 74.908C214.48 72.7773 215.546 71.1907 216.452 70.148C217.359 69.06 218.538 68.04 219.988 67.088C221.394 66.136 223.162 65.66 225.292 65.66C227.378 65.66 228.896 66.68 229.848 68.72L231.004 63.62C232.5 57.1373 233.747 51.448 234.744 46.552L235.968 40.432L236.716 36.896C236.716 36.352 236.898 35.876 237.26 35.468C237.668 35.0147 238.099 34.788 238.552 34.788C239.504 34.788 239.98 35.3093 239.98 36.352V36.624C239.98 37.848 239.21 41.9733 237.668 49C236.082 56.2987 235.062 61.3533 234.608 64.164C234.11 67.0653 233.226 71.1453 231.956 76.404L231.004 80.144C229.962 84.1333 229.191 87.284 228.692 89.596C228.239 91.908 228.035 93.88 228.08 95.512C228.08 96.736 228.284 98.0053 228.692 99.32C228.647 99.8187 228.398 100.249 227.944 100.612C227.536 101.02 227.151 101.224 226.788 101.224ZM216.52 97.28C217.563 97.28 219.036 95.9653 220.94 93.336C222.89 90.6613 224.59 87.4653 226.04 83.748C227.491 80.0307 228.216 76.608 228.216 73.48C228.216 72.256 227.854 71.1227 227.128 70.08C226.448 69.0373 225.542 68.516 224.408 68.516C222.323 68.516 220.374 69.8307 218.56 72.46C216.747 75.044 215.274 78.2853 214.14 82.184C213.052 85.856 212.508 88.9387 212.508 91.432C212.508 93.1093 212.826 94.5147 213.46 95.648C214.14 96.736 215.16 97.28 216.52 97.28ZM246.335 100.68C244.884 100.68 243.751 100.453 242.935 100C242.119 99.5013 241.462 98.7533 240.963 97.756C240.011 95.988 239.535 93.8573 239.535 91.364C239.535 87.012 240.192 82.8867 241.507 78.988C242.822 75.044 244.612 71.7347 246.879 69.06C249.055 66.5213 251.435 65.252 254.019 65.252C255.379 65.252 256.444 65.8187 257.215 66.952C258.031 68.04 258.439 69.3773 258.439 70.964C258.439 73.7293 257.714 76.132 256.263 78.172C254.858 80.212 252.954 81.912 250.551 83.272C248.466 84.496 245.927 85.72 242.935 86.944L242.799 91.84C242.799 95.648 243.955 97.552 246.267 97.552C247.219 97.552 248.126 97.3707 248.987 97.008C249.894 96.6453 250.868 96.1467 251.911 95.512C253.135 94.7867 253.996 94.424 254.495 94.424C255.266 94.424 255.651 94.832 255.651 95.648C255.651 96.2373 255.084 96.94 253.951 97.756C252.863 98.572 251.571 99.2747 250.075 99.864C248.579 100.408 247.332 100.68 246.335 100.68ZM243.479 83.68C246.516 82.456 248.828 81.368 250.415 80.416C252.002 79.464 253.203 78.2627 254.019 76.812C254.88 75.3613 255.311 73.4573 255.311 71.1C255.311 69.332 254.563 68.448 253.067 68.448C251.752 68.448 250.211 69.6493 248.443 72.052C246.584 74.4547 245.088 77.6053 243.955 81.504C243.638 82.592 243.479 83.3173 243.479 83.68ZM263.01 101.088C262.375 101.088 262.058 100.68 262.058 99.864L263.622 91.772L266.478 77.424C267.747 71.0773 268.382 67.904 268.382 67.904C268.563 66.9067 268.813 66.1813 269.13 65.728C269.447 65.2747 269.855 65.048 270.354 65.048C270.807 65.048 271.147 65.1613 271.374 65.388C271.646 65.6147 271.782 66.0227 271.782 66.612C271.782 67.6547 271.465 69.2413 270.83 71.372C270.513 72.4147 270.286 73.2987 270.15 74.024C269.969 74.6587 269.765 75.384 269.538 76.2C269.311 76.9707 269.062 77.8773 268.79 78.92C270.014 76.1547 271.17 73.956 272.258 72.324C273.346 70.6467 274.706 69.06 276.338 67.564C277.879 66.2493 279.421 65.592 280.962 65.592C282.095 65.592 283.047 65.8413 283.818 66.34C284.589 66.7933 284.974 67.3373 284.974 67.972C284.974 68.4707 284.793 68.8787 284.43 69.196C284.067 69.468 283.614 69.604 283.07 69.604C282.662 69.604 282.277 69.5133 281.914 69.332C281.642 69.1053 281.279 68.992 280.826 68.992C280.237 68.992 279.375 69.4 278.242 70.216C276.111 71.7573 274.298 73.7973 272.802 76.336C271.351 78.8293 270.195 81.368 269.334 83.952C268.518 86.4907 267.634 89.5733 266.682 93.2L266.07 95.716C265.39 99.2973 264.37 101.088 263.01 101.088Z" fill="#1C1917"/>
<path d="M292.412 19.0107C296.502 19.2183 299.782 22.4977 299.989 26.5879L300 27V103H294V27C294 25.8954 293.105 25 292 25H8C6.89544 25 6.00001 25.8955 6 27V130H0V27L0.0107422 26.5879C0.218317 22.4976 3.49764 19.2183 7.58789 19.0107L8 19H292L292.412 19.0107Z" fill="#D6D3D1"/>
<path d="M292.412 0.0107422C296.502 0.2183 299.782 3.49765 299.989 7.58789L300 8V103H296V8C296 5.79086 294.209 4 292 4H8C5.79088 4.00001 4.00001 5.79087 4 8V130H0V8L0.0107422 7.58789C0.218314 3.49765 3.49764 0.218297 7.58789 0.0107422L8 0H292L292.412 0.0107422Z" fill="#D6D3D1"/>
</svg>
