<svg width="300" height="130" viewBox="0 0 300 130" fill="none" xmlns="http://www.w3.org/2000/svg">
<path d="M3.00003 9C3.00003 5.68629 5.68632 3 9.00003 3H293C296.314 3 299 5.68629 299 9V20H3.00003V9Z" fill="#D6D3D1"/>
<rect x="14.2857" y="9" width="5.71429" height="5.71429" rx="2.85714" fill="white"/>
<rect x="25.7144" y="9" width="5.71429" height="5.71429" rx="2.85714" fill="white"/>
<rect x="37.1429" y="9" width="5.71429" height="5.71429" rx="2.85714" fill="white"/>
<path d="M294 17L294.309 17.0078C297.377 17.1632 299.837 19.6233 299.992 22.6914L300 23V112H294V23H6V112H0V23L0.0078125 22.6914C0.163268 19.6233 2.62333 17.1632 5.69141 17.0078L6 17H294Z" fill="#D6D3D1"/>
<path d="M292 0L292.412 0.0107422C296.502 0.2183 299.782 3.49765 299.989 7.58789L300 8V112.063C299.672 112.023 299.339 112 299 112H296V8C296 5.79086 294.209 4 292 4H8C5.79088 4.00001 4.00001 5.79087 4 8V112H0V8L0.0107422 7.58789C0.218314 3.49765 3.49764 0.218297 7.58789 0.0107422L8 0H292Z" fill="#D6D3D1"/>
<path d="M32.5822 102.748C29.4542 102.748 26.5756 102.227 23.9462 101.184C21.3622 100.141 19.2996 98.6227 17.7582 96.628C16.2622 94.588 15.5142 92.1853 15.5142 89.42C15.5142 85.1133 16.8062 81.396 19.3902 78.268C20.1609 77.316 20.9996 76.4093 21.9062 75.548C22.8129 74.6867 23.5382 74.256 24.0822 74.256C24.9436 74.256 25.3742 74.6413 25.3742 75.412C25.3742 75.7747 25.2836 76.092 25.1022 76.364C22.8356 78.404 21.2036 80.376 20.2062 82.28C19.2542 84.184 18.7782 86.2467 18.7782 88.468C18.7782 92.276 20.1156 95.1093 22.7902 96.968C25.5102 98.8267 28.8876 99.756 32.9222 99.756C35.5062 99.756 37.7729 99.0987 39.7222 97.784C41.7169 96.424 43.2356 94.6107 44.2782 92.344C45.3662 90.0773 45.9102 87.6293 45.9102 85C45.9102 81.0107 44.0742 74.7773 40.4022 66.3C36.7302 57.732 34.8942 51.7707 34.8942 48.416C34.8942 44.9253 35.7329 42.024 37.4102 39.712C39.0876 37.4 41.4902 36.244 44.6182 36.244C47.0209 36.244 49.0156 36.856 50.6022 38.08C52.2342 39.2587 53.4356 40.6187 54.2062 42.16C54.9769 43.656 55.3622 44.88 55.3622 45.832C55.3622 46.2853 55.1582 46.6933 54.7502 47.056C54.3876 47.3733 54.0022 47.532 53.5942 47.532C52.9142 47.532 52.5062 47.124 52.3702 46.308C52.0529 44.2227 51.1916 42.5 49.7862 41.14C48.3809 39.78 46.6582 39.1 44.6182 39.1C42.5782 39.1 40.9916 39.8253 39.8582 41.276C38.7249 42.6813 38.1582 44.4493 38.1582 46.58C38.1582 49.572 38.6116 52.496 39.5182 55.352C40.4249 58.1627 41.8076 61.7213 43.6662 66.028C45.4796 70.1533 46.8396 73.6667 47.7462 76.568C48.6982 79.424 49.1742 82.348 49.1742 85.34C49.1742 88.2413 48.6076 91.0293 47.4742 93.704C46.3409 96.3333 44.5276 98.5093 42.0342 100.232C39.5409 101.909 36.3902 102.748 32.5822 102.748ZM54.5972 129.88C53.9172 129.88 53.5319 129.427 53.4412 128.52C54.8012 123.352 55.9799 118.184 56.9772 113.016L59.0172 102.34L61.0572 91.664L61.6012 88.808C63.4146 79.3787 64.6386 73.0773 65.2732 69.904V68.408C65.2732 67.9547 65.4772 67.524 65.8852 67.116C66.2932 66.708 66.7692 66.504 67.3132 66.504C67.8119 66.504 68.1972 66.708 68.4692 67.116C68.7412 67.4787 68.8772 67.8867 68.8772 68.34C68.8772 68.9747 68.7639 69.632 68.5372 70.312L68.2652 71.196C68.1746 71.5587 68.1292 71.808 68.1292 71.944L67.1772 76.84C70.4412 70.6293 73.9319 67.524 77.6492 67.524C79.5986 67.524 81.0039 68.1133 81.8652 69.292C82.7719 70.4253 83.2252 72.148 83.2252 74.46C83.2252 78.812 82.6132 83.1413 81.3892 87.448C80.1652 91.7547 78.3972 95.3813 76.0852 98.328C73.7279 101.365 70.9172 102.884 67.6532 102.884C66.3839 102.884 65.3639 102.612 64.5932 102.068C63.8679 101.569 63.2786 100.685 62.8252 99.416L62.0092 103.428C60.9212 108.415 60.1279 112.177 59.6292 114.716C58.5412 120.247 57.4986 124.848 56.5012 128.52C56.0932 129.427 55.4586 129.88 54.5972 129.88ZM68.1292 99.688C70.4866 99.688 72.6852 98.192 74.7252 95.2C77.2639 91.3467 78.9412 86.292 79.7572 80.036C79.9839 78.0867 80.0972 76.4093 80.0972 75.004C80.0972 72.0573 79.3719 70.584 77.9212 70.584C76.4706 70.584 74.8159 71.6267 72.9572 73.712C70.4186 76.568 68.3332 80.0133 66.7012 84.048C65.0692 88.0373 64.2532 91.5053 64.2532 94.452C64.2532 97.9427 65.5452 99.688 68.1292 99.688ZM89.2071 102.68C87.6658 102.68 86.8951 101.433 86.8951 98.94C86.8951 98.3053 87.0084 97.7387 87.2351 97.24C87.4618 96.4693 87.6658 95.5853 87.8471 94.588L88.8671 90.032L90.2271 84.048C90.6804 81.8267 91.2244 79.3333 91.8591 76.568C91.9498 76.296 92.0404 75.8427 92.1311 75.208C92.5844 73.2587 92.8111 72.1253 92.8111 71.808V71.128C92.8111 70.7653 92.6524 70.0173 92.3351 68.884C92.3351 68.34 92.5164 67.8413 92.8791 67.388C93.2871 66.9347 93.7631 66.708 94.3071 66.708C94.8058 66.708 95.2364 67.048 95.5991 67.728C95.9618 68.408 96.1431 69.156 96.1431 69.972C96.1431 70.8787 95.1004 75.7747 93.0151 84.66C90.9298 93.5453 89.8871 98.26 89.8871 98.804C89.8871 99.3027 90.1138 99.552 90.5671 99.552C90.7938 99.552 91.2018 99.2573 91.7911 98.668C92.3351 98.124 92.7884 97.852 93.1511 97.852C93.8764 97.852 94.2391 98.3053 94.2391 99.212C94.2391 99.756 93.9218 100.3 93.2871 100.844C92.6524 101.388 91.9271 101.819 91.1111 102.136C90.2951 102.499 89.6604 102.68 89.2071 102.68ZM96.0751 61.608C95.3498 61.608 94.8058 61.5173 94.4431 61.336H94.1711C92.8564 61.336 92.1991 60.5653 92.1991 59.024C92.1991 58.2533 92.5164 57.5507 93.1511 56.916C93.8311 56.2813 94.5564 55.964 95.3271 55.964C96.0978 55.964 96.8231 56.236 97.5031 56.78C98.2738 57.5507 98.6591 58.2987 98.6591 59.024C98.6591 59.704 98.3871 60.316 97.8431 60.86C97.3444 61.3587 96.7551 61.608 96.0751 61.608ZM101.37 96.968C101.37 96.3787 101.529 95.9707 101.846 95.744C102.163 95.5173 102.571 95.3587 103.07 95.268C103.478 95.268 103.795 95.404 104.022 95.676C104.294 95.948 104.611 96.3787 104.974 96.968C105.337 97.6027 105.631 98.056 105.858 98.328C106.13 98.5547 106.583 98.668 107.218 98.668C108.669 98.668 109.847 98.2147 110.754 97.308C111.706 96.4013 112.182 95.336 112.182 94.112C112.182 92.7973 111.91 91.4147 111.366 89.964C110.822 88.5133 109.983 86.7 108.85 84.524C106.583 80.444 105.45 77.2027 105.45 74.8C105.45 72.3973 106.039 70.4707 107.218 69.02C108.442 67.5693 110.097 66.844 112.182 66.844C113.633 66.844 115.015 67.252 116.33 68.068C117.645 68.884 118.302 69.904 118.302 71.128C118.302 72.4427 117.758 73.1 116.67 73.1C116.353 73.1 116.081 73.0093 115.854 72.828C115.673 72.6467 115.491 72.4427 115.31 72.216C115.129 71.944 114.993 71.7627 114.902 71.672C114.086 70.72 113.179 70.244 112.182 70.244C109.961 70.244 108.85 71.536 108.85 74.12C108.85 75.5253 109.122 76.9533 109.666 78.404C110.21 79.8547 111.026 81.6907 112.114 83.912C113.157 86.088 113.95 87.9013 114.494 89.352C115.038 90.8027 115.31 92.1853 115.31 93.5C115.31 95.812 114.607 97.7613 113.202 99.348C111.797 100.935 109.825 101.887 107.286 102.204C105.699 102.204 104.317 101.66 103.138 100.572C101.959 99.4387 101.37 98.2373 101.37 96.968ZM129.358 102.68C127.908 102.68 126.774 102.453 125.958 102C125.142 101.501 124.485 100.753 123.986 99.756C123.034 97.988 122.558 95.8573 122.558 93.364C122.558 89.012 123.216 84.8867 124.53 80.988C125.845 77.044 127.636 73.7347 129.902 71.06C132.078 68.5213 134.458 67.252 137.042 67.252C138.402 67.252 139.468 67.8187 140.238 68.952C141.054 70.04 141.462 71.3773 141.462 72.964C141.462 75.7293 140.737 78.132 139.286 80.172C137.881 82.212 135.977 83.912 133.574 85.272C131.489 86.496 128.95 87.72 125.958 88.944L125.822 93.84C125.822 97.648 126.978 99.552 129.29 99.552C130.242 99.552 131.149 99.3707 132.01 99.008C132.917 98.6453 133.892 98.1467 134.934 97.512C136.158 96.7867 137.02 96.424 137.518 96.424C138.289 96.424 138.674 96.832 138.674 97.648C138.674 98.2373 138.108 98.94 136.974 99.756C135.886 100.572 134.594 101.275 133.098 101.864C131.602 102.408 130.356 102.68 129.358 102.68ZM126.502 85.68C129.54 84.456 131.852 83.368 133.438 82.416C135.025 81.464 136.226 80.2627 137.042 78.812C137.904 77.3613 138.334 75.4573 138.334 73.1C138.334 71.332 137.586 70.448 136.09 70.448C134.776 70.448 133.234 71.6493 131.466 74.052C129.608 76.4547 128.112 79.6053 126.978 83.504C126.661 84.592 126.502 85.3173 126.502 85.68ZM144.401 96.968C144.401 96.3787 144.56 95.9707 144.877 95.744C145.195 95.5173 145.603 95.3587 146.101 95.268C146.509 95.268 146.827 95.404 147.053 95.676C147.325 95.948 147.643 96.3787 148.005 96.968C148.368 97.6027 148.663 98.056 148.889 98.328C149.161 98.5547 149.615 98.668 150.249 98.668C151.7 98.668 152.879 98.2147 153.785 97.308C154.737 96.4013 155.213 95.336 155.213 94.112C155.213 92.7973 154.941 91.4147 154.397 89.964C153.853 88.5133 153.015 86.7 151.881 84.524C149.615 80.444 148.481 77.2027 148.481 74.8C148.481 72.3973 149.071 70.4707 150.249 69.02C151.473 67.5693 153.128 66.844 155.213 66.844C156.664 66.844 158.047 67.252 159.361 68.068C160.676 68.884 161.333 69.904 161.333 71.128C161.333 72.4427 160.789 73.1 159.701 73.1C159.384 73.1 159.112 73.0093 158.885 72.828C158.704 72.6467 158.523 72.4427 158.341 72.216C158.16 71.944 158.024 71.7627 157.933 71.672C157.117 70.72 156.211 70.244 155.213 70.244C152.992 70.244 151.881 71.536 151.881 74.12C151.881 75.5253 152.153 76.9533 152.697 78.404C153.241 79.8547 154.057 81.6907 155.145 83.912C156.188 86.088 156.981 87.9013 157.525 89.352C158.069 90.8027 158.341 92.1853 158.341 93.5C158.341 95.812 157.639 97.7613 156.233 99.348C154.828 100.935 152.856 101.887 150.317 102.204C148.731 102.204 147.348 101.66 146.169 100.572C144.991 99.4387 144.401 98.2373 144.401 96.968ZM172.118 102.272C170.531 102.272 169.33 101.864 168.514 101.048C167.743 100.232 167.358 98.7587 167.358 96.628C167.358 95.4493 167.494 94.0893 167.766 92.548L168.378 88.672L169.126 85.476L169.534 83.64L170.418 79.9C170.508 79.3107 170.712 78.3587 171.03 77.044L171.37 75.684L171.982 72.76L172.39 70.72C170.622 70.72 168.99 70.8333 167.494 71.06C166.587 70.924 166.134 70.5387 166.134 69.904C166.134 69.4507 166.315 69.02 166.678 68.612C167.04 68.204 167.471 67.9773 167.97 67.932L172.866 68.068C172.866 68.068 172.979 67.5013 173.206 66.368C173.296 65.4613 173.478 64.4187 173.75 63.24C174.022 62.0613 174.362 61.0187 174.77 60.112C175.178 59.1147 175.767 58.616 176.538 58.616C177.263 58.616 177.626 59.024 177.626 59.84V60.248C177.444 61.1547 177.286 61.812 177.15 62.22L175.994 68H180.89C182.612 68 183.678 68.136 184.086 68.408C184.448 68.68 184.63 69.02 184.63 69.428C184.63 70.1533 184.29 70.6293 183.61 70.856C182.975 71.0373 181.864 71.128 180.278 71.128C178.827 71.128 177.218 71.06 175.45 70.924C175.178 72.42 174.248 76.568 172.662 83.368C171.211 89.5333 170.486 93.432 170.486 95.064C170.486 96.832 170.69 97.988 171.098 98.532C171.324 98.8947 171.8 99.076 172.526 99.076C173.16 99.076 173.704 98.9173 174.158 98.6C174.656 98.2373 175.155 97.7613 175.654 97.172C176.152 96.5373 176.583 96.0613 176.946 95.744C177.308 95.4267 177.694 95.268 178.102 95.268C179.008 95.268 179.462 95.7213 179.462 96.628C179.462 97.0813 179.008 97.8293 178.102 98.872C177.195 99.9147 176.334 100.753 175.518 101.388C174.792 101.977 173.659 102.272 172.118 102.272ZM193.905 102.68C192.455 102.68 191.321 102.453 190.505 102C189.689 101.501 189.032 100.753 188.533 99.756C187.581 97.988 187.105 95.8573 187.105 93.364C187.105 89.012 187.763 84.8867 189.077 80.988C190.392 77.044 192.183 73.7347 194.449 71.06C196.625 68.5213 199.005 67.252 201.589 67.252C202.949 67.252 204.015 67.8187 204.785 68.952C205.601 70.04 206.009 71.3773 206.009 72.964C206.009 75.7293 205.284 78.132 203.833 80.172C202.428 82.212 200.524 83.912 198.121 85.272C196.036 86.496 193.497 87.72 190.505 88.944L190.369 93.84C190.369 97.648 191.525 99.552 193.837 99.552C194.789 99.552 195.696 99.3707 196.557 99.008C197.464 98.6453 198.439 98.1467 199.481 97.512C200.705 96.7867 201.567 96.424 202.065 96.424C202.836 96.424 203.221 96.832 203.221 97.648C203.221 98.2373 202.655 98.94 201.521 99.756C200.433 100.572 199.141 101.275 197.645 101.864C196.149 102.408 194.903 102.68 193.905 102.68ZM191.049 85.68C194.087 84.456 196.399 83.368 197.985 82.416C199.572 81.464 200.773 80.2627 201.589 78.812C202.451 77.3613 202.881 75.4573 202.881 73.1C202.881 71.332 202.133 70.448 200.637 70.448C199.323 70.448 197.781 71.6493 196.013 74.052C194.155 76.4547 192.659 79.6053 191.525 83.504C191.208 84.592 191.049 85.3173 191.049 85.68ZM226.288 103.224C225.744 103.224 225.246 102.589 224.792 101.32C224.384 100.005 224.18 98.804 224.18 97.716C224.18 96.8093 224.316 95.744 224.588 94.52C223.636 97.3307 222.435 99.3933 220.984 100.708C219.534 101.977 217.675 102.612 215.408 102.612C213.278 102.612 211.668 101.751 210.58 100.028C209.492 98.26 208.948 96.288 208.948 94.112C208.948 87.3573 210.218 81.6227 212.756 76.908C213.98 74.7773 215.046 73.1907 215.952 72.148C216.859 71.06 218.038 70.04 219.488 69.088C220.894 68.136 222.662 67.66 224.792 67.66C226.878 67.66 228.396 68.68 229.348 70.72L230.504 65.62C232 59.1373 233.247 53.448 234.244 48.552L235.468 42.432L236.216 38.896C236.216 38.352 236.398 37.876 236.76 37.468C237.168 37.0147 237.599 36.788 238.052 36.788C239.004 36.788 239.48 37.3093 239.48 38.352V38.624C239.48 39.848 238.71 43.9733 237.168 51C235.582 58.2987 234.562 63.3533 234.108 66.164C233.61 69.0653 232.726 73.1453 231.456 78.404L230.504 82.144C229.462 86.1333 228.691 89.284 228.192 91.596C227.739 93.908 227.535 95.88 227.58 97.512C227.58 98.736 227.784 100.005 228.192 101.32C228.147 101.819 227.898 102.249 227.444 102.612C227.036 103.02 226.651 103.224 226.288 103.224ZM216.02 99.28C217.063 99.28 218.536 97.9653 220.44 95.336C222.39 92.6613 224.09 89.4653 225.54 85.748C226.991 82.0307 227.716 78.608 227.716 75.48C227.716 74.256 227.354 73.1227 226.628 72.08C225.948 71.0373 225.042 70.516 223.908 70.516C221.823 70.516 219.874 71.8307 218.06 74.46C216.247 77.044 214.774 80.2853 213.64 84.184C212.552 87.856 212.008 90.9387 212.008 93.432C212.008 95.1093 212.326 96.5147 212.96 97.648C213.64 98.736 214.66 99.28 216.02 99.28ZM245.835 102.68C244.384 102.68 243.251 102.453 242.435 102C241.619 101.501 240.962 100.753 240.463 99.756C239.511 97.988 239.035 95.8573 239.035 93.364C239.035 89.012 239.692 84.8867 241.007 80.988C242.322 77.044 244.112 73.7347 246.379 71.06C248.555 68.5213 250.935 67.252 253.519 67.252C254.879 67.252 255.944 67.8187 256.715 68.952C257.531 70.04 257.939 71.3773 257.939 72.964C257.939 75.7293 257.214 78.132 255.763 80.172C254.358 82.212 252.454 83.912 250.051 85.272C247.966 86.496 245.427 87.72 242.435 88.944L242.299 93.84C242.299 97.648 243.455 99.552 245.767 99.552C246.719 99.552 247.626 99.3707 248.487 99.008C249.394 98.6453 250.368 98.1467 251.411 97.512C252.635 96.7867 253.496 96.424 253.995 96.424C254.766 96.424 255.151 96.832 255.151 97.648C255.151 98.2373 254.584 98.94 253.451 99.756C252.363 100.572 251.071 101.275 249.575 101.864C248.079 102.408 246.832 102.68 245.835 102.68ZM242.979 85.68C246.016 84.456 248.328 83.368 249.915 82.416C251.502 81.464 252.703 80.2627 253.519 78.812C254.38 77.3613 254.811 75.4573 254.811 73.1C254.811 71.332 254.063 70.448 252.567 70.448C251.252 70.448 249.711 71.6493 247.943 74.052C246.084 76.4547 244.588 79.6053 243.455 83.504C243.138 84.592 242.979 85.3173 242.979 85.68ZM262.51 103.088C261.875 103.088 261.558 102.68 261.558 101.864L263.122 93.772L265.978 79.424C267.247 73.0773 267.882 69.904 267.882 69.904C268.063 68.9067 268.313 68.1813 268.63 67.728C268.947 67.2747 269.355 67.048 269.854 67.048C270.307 67.048 270.647 67.1613 270.874 67.388C271.146 67.6147 271.282 68.0227 271.282 68.612C271.282 69.6547 270.965 71.2413 270.33 73.372C270.013 74.4147 269.786 75.2987 269.65 76.024C269.469 76.6587 269.265 77.384 269.038 78.2C268.811 78.9707 268.562 79.8773 268.29 80.92C269.514 78.1547 270.67 75.956 271.758 74.324C272.846 72.6467 274.206 71.06 275.838 69.564C277.379 68.2493 278.921 67.592 280.462 67.592C281.595 67.592 282.547 67.8413 283.318 68.34C284.089 68.7933 284.474 69.3373 284.474 69.972C284.474 70.4707 284.293 70.8787 283.93 71.196C283.567 71.468 283.114 71.604 282.57 71.604C282.162 71.604 281.777 71.5133 281.414 71.332C281.142 71.1053 280.779 70.992 280.326 70.992C279.737 70.992 278.875 71.4 277.742 72.216C275.611 73.7573 273.798 75.7973 272.302 78.336C270.851 80.8293 269.695 83.368 268.834 85.952C268.018 88.4907 267.134 91.5733 266.182 95.2L265.57 97.716C264.89 101.297 263.87 103.088 262.51 103.088Z" fill="#1C1917"/>
</svg>
