<svg width="300" height="130" viewBox="0 0 300 130" fill="none" xmlns="http://www.w3.org/2000/svg">
<path d="M3 9C3 5.68629 5.68629 3 9 3H293C296.314 3 299 5.68629 299 9V20H3V9Z" fill="#D6D3D1"/>
<rect x="14.2857" y="9" width="5.71429" height="5.71429" rx="2.85714" fill="white"/>
<rect x="25.7143" y="9" width="5.71429" height="5.71429" rx="2.85714" fill="white"/>
<rect x="37.1428" y="9" width="5.71429" height="5.71429" rx="2.85714" fill="white"/>
<path d="M36.313 102.77C33.093 102.77 30.1296 102.234 27.423 101.16C24.763 100.087 22.6396 98.5235 21.053 96.4702C19.513 94.3702 18.743 91.8968 18.743 89.0502C18.743 84.6168 20.073 80.7902 22.733 77.5702C23.5263 76.5902 24.3896 75.6568 25.323 74.7702C26.2563 73.8835 27.003 73.4402 27.563 73.4402C28.4496 73.4402 28.893 73.8368 28.893 74.6302C28.893 75.0035 28.7996 75.3302 28.613 75.6102C26.2796 77.7102 24.5996 79.7402 23.573 81.7002C22.593 83.6602 22.103 85.7835 22.103 88.0702C22.103 91.9902 23.4796 94.9068 26.233 96.8202C29.033 98.7335 32.5096 99.6902 36.663 99.6902C39.323 99.6902 41.6563 99.0135 43.663 97.6602C45.7163 96.2602 47.2796 94.3935 48.353 92.0602C49.473 89.7269 50.033 87.2068 50.033 84.5002C50.033 80.3935 48.143 73.9768 44.363 65.2502C40.583 56.4302 38.693 50.2935 38.693 46.8402C38.693 43.2468 39.5563 40.2602 41.283 37.8802C43.0097 35.5002 45.483 34.3102 48.703 34.3102C51.1763 34.3102 53.2296 34.9402 54.863 36.2002C56.543 37.4135 57.7796 38.8135 58.573 40.4002C59.3663 41.9402 59.763 43.2002 59.763 44.1802C59.763 44.6468 59.553 45.0668 59.133 45.4402C58.7597 45.7668 58.363 45.9302 57.943 45.9302C57.243 45.9302 56.823 45.5102 56.683 44.6702C56.3563 42.5235 55.4696 40.7502 54.023 39.3502C52.5763 37.9502 50.803 37.2502 48.703 37.2502C46.603 37.2502 44.9696 37.9968 43.803 39.4902C42.6363 40.9368 42.053 42.7568 42.053 44.9502C42.053 48.0302 42.5196 51.0402 43.453 53.9802C44.3863 56.8735 45.8096 60.5368 47.723 64.9702C49.5896 69.2168 50.9896 72.8335 51.923 75.8202C52.903 78.7602 53.393 81.7702 53.393 84.8502C53.393 87.8368 52.8096 90.7068 51.643 93.4602C50.4763 96.1668 48.6096 98.4068 46.043 100.18C43.4763 101.907 40.233 102.77 36.313 102.77Z" fill="#2D757C"/>
<path d="M52.5 130C51.5 130 51.2755 129.353 51.5 128.5C52.98 122.876 53.6851 119.612 54.7705 113.988L59.8025 87.6442C61.7758 77.3829 63.1078 70.5255 63.7985 67.0722V65.4442C63.7985 64.9509 64.0205 64.4822 64.4645 64.0382C64.9085 63.5942 65.4265 63.3722 66.0185 63.3722C66.5611 63.3722 66.9805 63.5942 67.2765 64.0382C67.5725 64.4328 67.7205 64.8769 67.7205 65.3702C67.7205 66.0608 67.5971 66.7762 67.3505 67.5162L67.0545 68.4782C66.9558 68.8728 66.9065 69.1442 66.9065 69.2922L65.8705 74.6202C69.4225 67.8615 73.2211 64.4822 77.2665 64.4822C79.3878 64.4822 80.9171 65.1235 81.8545 66.4062C82.8411 67.6395 83.3345 69.5142 83.3345 72.0302C83.3345 76.7662 82.6685 81.4775 81.3365 86.1642C80.0045 90.8508 78.0805 94.7975 75.5645 98.0042C72.9991 101.31 69.9405 102.962 66.3885 102.962C65.0071 102.962 63.8971 102.666 63.0585 102.074C62.2691 101.532 61.6278 100.57 61.1345 99.1882L60.2465 103.554C59.0625 108.981 58.1991 113.076 57.6565 115.838C56.4725 121.857 56.0853 124.504 55 128.5C54.6602 129.751 54 130 52.5 130ZM66.9065 99.4842C69.4718 99.4842 71.8645 97.8562 74.0845 94.6002C76.8471 90.4068 78.6725 84.9062 79.5605 78.0982C79.8071 75.9768 79.9305 74.1515 79.9305 72.6222C79.9305 69.4155 79.1411 67.8122 77.5625 67.8122C75.9838 67.8122 74.1831 68.9468 72.1605 71.2162C69.3978 74.3242 67.1285 78.0735 65.3525 82.4642C63.5765 86.8055 62.6885 90.5795 62.6885 93.7862C62.6885 97.5848 64.0945 99.4842 66.9065 99.4842Z" fill="#1C1917"/>
<path d="M87.6242 102.74C85.9468 102.74 85.1082 101.384 85.1082 98.6702C85.1082 97.9795 85.2315 97.3628 85.4782 96.8202C85.7248 95.9815 85.9468 95.0195 86.1442 93.9342L87.2542 88.9762L88.7342 82.4642C89.2275 80.0468 89.8195 77.3335 90.5102 74.3242C90.6088 74.0282 90.7075 73.5348 90.8062 72.8442C91.2995 70.7228 91.5462 69.4895 91.5462 69.1442V68.4042C91.5462 68.0095 91.3735 67.1955 91.0282 65.9622C91.0282 65.3702 91.2255 64.8275 91.6202 64.3342C92.0642 63.8408 92.5822 63.5942 93.1742 63.5942C93.7168 63.5942 94.1855 63.9642 94.5802 64.7042C94.9748 65.4442 95.1722 66.2582 95.1722 67.1462C95.1722 68.1328 94.0375 73.4608 91.7682 83.1302C89.4988 92.7995 88.3642 97.9302 88.3642 98.5222C88.3642 99.0649 88.6108 99.3362 89.1042 99.3362C89.3508 99.3362 89.7948 99.0155 90.4362 98.3742C91.0282 97.7822 91.5215 97.4862 91.9162 97.4862C92.7055 97.4862 93.1002 97.9795 93.1002 98.9662C93.1002 99.5582 92.7548 100.15 92.0642 100.742C91.3735 101.334 90.5842 101.803 89.6962 102.148C88.8082 102.543 88.1175 102.74 87.6242 102.74ZM95.0982 58.0442C94.3088 58.0442 93.7168 57.9455 93.3222 57.7482H93.0262C91.5955 57.7482 90.8802 56.9095 90.8802 55.2322C90.8802 54.3935 91.2255 53.6288 91.9162 52.9382C92.6562 52.2475 93.4455 51.9022 94.2842 51.9022C95.1228 51.9022 95.9122 52.1982 96.6522 52.7902C97.4908 53.6288 97.9102 54.4428 97.9102 55.2322C97.9102 55.9722 97.6142 56.6382 97.0222 57.2302C96.4795 57.7728 95.8382 58.0442 95.0982 58.0442Z" fill="#1C1917"/>
<path d="M98.6403 96.5242C98.6403 95.8829 98.813 95.4389 99.1583 95.1922C99.5037 94.9455 99.9477 94.7728 100.49 94.6742C100.934 94.6742 101.28 94.8222 101.526 95.1182C101.822 95.4142 102.168 95.8829 102.562 96.5242C102.957 97.2149 103.278 97.7082 103.524 98.0042C103.82 98.2508 104.314 98.3742 105.004 98.3742C106.583 98.3742 107.866 97.8808 108.852 96.8942C109.888 95.9075 110.406 94.7482 110.406 93.4162C110.406 91.9855 110.11 90.4808 109.518 88.9022C108.926 87.3235 108.014 85.3502 106.78 82.9822C104.314 78.5422 103.08 75.0149 103.08 72.4002C103.08 69.7855 103.722 67.6889 105.004 66.1102C106.336 64.5315 108.137 63.7422 110.406 63.7422C111.985 63.7422 113.49 64.1862 114.92 65.0742C116.351 65.9622 117.066 67.0722 117.066 68.4042C117.066 69.8348 116.474 70.5502 115.29 70.5502C114.945 70.5502 114.649 70.4515 114.402 70.2542C114.205 70.0568 114.008 69.8348 113.81 69.5882C113.613 69.2922 113.465 69.0948 113.366 68.9962C112.478 67.9602 111.492 67.4422 110.406 67.4422C107.989 67.4422 106.78 68.8482 106.78 71.6602C106.78 73.1895 107.076 74.7435 107.668 76.3222C108.26 77.9008 109.148 79.8989 110.332 82.3162C111.467 84.6842 112.33 86.6575 112.922 88.2362C113.514 89.8148 113.81 91.3195 113.81 92.7502C113.81 95.2662 113.046 97.3875 111.516 99.1142C109.987 100.841 107.841 101.877 105.078 102.222C103.352 102.222 101.847 101.63 100.564 100.446C99.2817 99.2128 98.6403 97.9055 98.6403 96.5242Z" fill="#1C1917"/>
<path d="M126.878 102.74C125.3 102.74 124.066 102.494 123.178 102C122.29 101.458 121.575 100.644 121.032 99.5582C119.996 97.6342 119.478 95.3155 119.478 92.6022C119.478 87.8662 120.194 83.3768 121.624 79.1342C123.055 74.8422 125.004 71.2408 127.47 68.3302C129.838 65.5675 132.428 64.1862 135.24 64.1862C136.72 64.1862 137.88 64.8028 138.718 66.0362C139.606 67.2202 140.05 68.6755 140.05 70.4022C140.05 73.4115 139.261 76.0262 137.682 78.2462C136.153 80.4662 134.081 82.3162 131.466 83.7962C129.197 85.1282 126.434 86.4602 123.178 87.7922L123.03 93.1202C123.03 97.2642 124.288 99.3362 126.804 99.3362C127.84 99.3362 128.827 99.1389 129.764 98.7442C130.751 98.3495 131.812 97.8068 132.946 97.1162C134.278 96.3268 135.216 95.9322 135.758 95.9322C136.597 95.9322 137.016 96.3762 137.016 97.2642C137.016 97.9055 136.4 98.6702 135.166 99.5582C133.982 100.446 132.576 101.211 130.948 101.852C129.32 102.444 127.964 102.74 126.878 102.74ZM123.77 84.2402C127.076 82.9082 129.592 81.7242 131.318 80.6882C133.045 79.6522 134.352 78.3448 135.24 76.7662C136.178 75.1875 136.646 73.1155 136.646 70.5502C136.646 68.6262 135.832 67.6642 134.204 67.6642C132.774 67.6642 131.096 68.9715 129.172 71.5862C127.15 74.2008 125.522 77.6295 124.288 81.8722C123.943 83.0562 123.77 83.8455 123.77 84.2402Z" fill="#1C1917"/>
<path d="M141.028 96.5242C141.028 95.8829 141.201 95.4389 141.546 95.1922C141.892 94.9455 142.336 94.7728 142.878 94.6742C143.322 94.6742 143.668 94.8222 143.914 95.1182C144.21 95.4142 144.556 95.8829 144.95 96.5242C145.345 97.2149 145.666 97.7082 145.912 98.0042C146.208 98.2508 146.702 98.3742 147.392 98.3742C148.971 98.3742 150.254 97.8808 151.24 96.8942C152.276 95.9075 152.794 94.7482 152.794 93.4162C152.794 91.9855 152.498 90.4808 151.906 88.9022C151.314 87.3235 150.402 85.3502 149.168 82.9822C146.702 78.5422 145.468 75.0149 145.468 72.4002C145.468 69.7855 146.11 67.6889 147.392 66.1102C148.724 64.5315 150.525 63.7422 152.794 63.7422C154.373 63.7422 155.878 64.1862 157.308 65.0742C158.739 65.9622 159.454 67.0722 159.454 68.4042C159.454 69.8348 158.862 70.5502 157.678 70.5502C157.333 70.5502 157.037 70.4515 156.79 70.2542C156.593 70.0568 156.396 69.8348 156.198 69.5882C156.001 69.2922 155.853 69.0948 155.754 68.9962C154.866 67.9602 153.88 67.4422 152.794 67.4422C150.377 67.4422 149.168 68.8482 149.168 71.6602C149.168 73.1895 149.464 74.7435 150.056 76.3222C150.648 77.9008 151.536 79.8989 152.72 82.3162C153.855 84.6842 154.718 86.6575 155.31 88.2362C155.902 89.8148 156.198 91.3195 156.198 92.7502C156.198 95.2662 155.434 97.3875 153.904 99.1142C152.375 100.841 150.229 101.877 147.466 102.222C145.74 102.222 144.235 101.63 142.952 100.446C141.67 99.2128 141.028 97.9055 141.028 96.5242Z" fill="#1C1917"/>
<path d="M168.97 102.296C167.244 102.296 165.936 101.852 165.048 100.964C164.21 100.076 163.79 98.4728 163.79 96.1542C163.79 94.8715 163.938 93.3915 164.234 91.7142L164.9 87.4962L165.714 84.0182L166.158 82.0202L167.12 77.9502C167.219 77.3088 167.441 76.2728 167.786 74.8422L168.156 73.3622L168.822 70.1802L169.266 67.9602C167.342 67.9602 165.566 68.0835 163.938 68.3302C162.952 68.1822 162.458 67.7628 162.458 67.0722C162.458 66.5788 162.656 66.1102 163.05 65.6662C163.445 65.2222 163.914 64.9755 164.456 64.9262L169.784 65.0742C169.784 65.0742 169.908 64.4575 170.154 63.2242C170.253 62.2375 170.45 61.1028 170.746 59.8202C171.042 58.5375 171.412 57.4028 171.856 56.4162C172.3 55.3308 172.942 54.7882 173.78 54.7882C174.57 54.7882 174.964 55.2322 174.964 56.1202V56.5642C174.767 57.5508 174.594 58.2662 174.446 58.7102L173.188 65.0002H178.516C180.391 65.0002 181.55 65.1482 181.994 65.4442C182.389 65.7402 182.586 66.1102 182.586 66.5542C182.586 67.3435 182.216 67.8615 181.476 68.1082C180.786 68.3055 179.577 68.4042 177.85 68.4042C176.272 68.4042 174.52 68.3302 172.596 68.1822C172.3 69.8102 171.289 74.3242 169.562 81.7242C167.984 88.4335 167.194 92.6762 167.194 94.4522C167.194 96.3762 167.416 97.6342 167.86 98.2262C168.107 98.6208 168.625 98.8182 169.414 98.8182C170.105 98.8182 170.697 98.6455 171.19 98.3002C171.733 97.9055 172.276 97.3875 172.818 96.7462C173.361 96.0555 173.83 95.5375 174.224 95.1922C174.619 94.8469 175.038 94.6742 175.482 94.6742C176.469 94.6742 176.962 95.1675 176.962 96.1542C176.962 96.6475 176.469 97.4615 175.482 98.5962C174.496 99.7309 173.558 100.644 172.67 101.334C171.881 101.976 170.648 102.296 168.97 102.296Z" fill="#1C1917"/>
<path d="M190.46 102.74C188.882 102.74 187.648 102.494 186.76 102C185.872 101.458 185.157 100.644 184.614 99.5582C183.578 97.6342 183.06 95.3155 183.06 92.6022C183.06 87.8662 183.776 83.3768 185.206 79.1342C186.637 74.8422 188.586 71.2408 191.052 68.3302C193.42 65.5675 196.01 64.1862 198.822 64.1862C200.302 64.1862 201.462 64.8028 202.3 66.0362C203.188 67.2202 203.632 68.6755 203.632 70.4022C203.632 73.4115 202.843 76.0262 201.264 78.2462C199.735 80.4662 197.663 82.3162 195.048 83.7962C192.779 85.1282 190.016 86.4602 186.76 87.7922L186.612 93.1202C186.612 97.2642 187.87 99.3362 190.386 99.3362C191.422 99.3362 192.409 99.1389 193.346 98.7442C194.333 98.3495 195.394 97.8068 196.528 97.1162C197.86 96.3268 198.798 95.9322 199.34 95.9322C200.179 95.9322 200.598 96.3762 200.598 97.2642C200.598 97.9055 199.982 98.6702 198.748 99.5582C197.564 100.446 196.158 101.211 194.53 101.852C192.902 102.444 191.546 102.74 190.46 102.74ZM187.352 84.2402C190.658 82.9082 193.174 81.7242 194.9 80.6882C196.627 79.6522 197.934 78.3448 198.822 76.7662C199.76 75.1875 200.228 73.1155 200.228 70.5502C200.228 68.6262 199.414 67.6642 197.786 67.6642C196.356 67.6642 194.678 68.9715 192.754 71.5862C190.732 74.2008 189.104 77.6295 187.87 81.8722C187.525 83.0562 187.352 83.8455 187.352 84.2402Z" fill="#1C1917"/>
<path d="M223.481 103.332C222.889 103.332 222.346 102.642 221.853 101.26C221.409 99.8295 221.187 98.5222 221.187 97.3382C221.187 96.3515 221.335 95.1922 221.631 93.8602C220.595 96.9189 219.287 99.1635 217.709 100.594C216.13 101.976 214.107 102.666 211.641 102.666C209.322 102.666 207.571 101.729 206.387 99.8542C205.203 97.9302 204.611 95.7842 204.611 93.4162C204.611 86.0655 205.992 79.8249 208.755 74.6942C210.087 72.3755 211.246 70.6488 212.233 69.5142C213.219 68.3302 214.502 67.2202 216.081 66.1842C217.61 65.1482 219.534 64.6302 221.853 64.6302C224.122 64.6302 225.775 65.7402 226.811 67.9602L228.069 62.4102C229.697 55.3555 231.053 49.1642 232.139 43.8362L233.471 37.1762L234.285 33.3282C234.285 32.7362 234.482 32.2182 234.877 31.7742C235.321 31.2808 235.789 31.0342 236.283 31.0342C237.319 31.0342 237.837 31.6015 237.837 32.7362V33.0322C237.837 34.3642 236.998 38.8535 235.321 46.5002C233.594 54.4428 232.484 59.9435 231.991 63.0022C231.448 66.1595 230.486 70.5995 229.105 76.3222L228.069 80.3922C226.934 84.7335 226.095 88.1622 225.553 90.6782C225.059 93.1942 224.837 95.3402 224.887 97.1162C224.887 98.4482 225.109 99.8295 225.553 101.26C225.503 101.803 225.232 102.272 224.739 102.666C224.295 103.11 223.875 103.332 223.481 103.332ZM212.307 99.0402C213.441 99.0402 215.045 97.6095 217.117 94.7482C219.238 91.8375 221.088 88.3595 222.667 84.3142C224.245 80.2688 225.035 76.5442 225.035 73.1402C225.035 71.8082 224.64 70.5748 223.851 69.4402C223.111 68.3055 222.124 67.7382 220.891 67.7382C218.621 67.7382 216.5 69.1688 214.527 72.0302C212.553 74.8422 210.95 78.3695 209.717 82.6122C208.533 86.6082 207.941 89.9628 207.941 92.6762C207.941 94.5015 208.286 96.0308 208.977 97.2642C209.717 98.4482 210.827 99.0402 212.307 99.0402Z" fill="#1C1917"/>
<path d="M242.532 102.74C240.953 102.74 239.72 102.494 238.832 102C237.944 101.458 237.229 100.644 236.686 99.5582C235.65 97.6342 235.132 95.3155 235.132 92.6022C235.132 87.8662 235.848 83.3768 237.278 79.1342C238.709 74.8422 240.657 71.2408 243.124 68.3302C245.492 65.5675 248.082 64.1862 250.894 64.1862C252.374 64.1862 253.533 64.8028 254.372 66.0362C255.26 67.2202 255.704 68.6755 255.704 70.4022C255.704 73.4115 254.915 76.0262 253.336 78.2462C251.807 80.4662 249.735 82.3162 247.12 83.7962C244.851 85.1282 242.088 86.4602 238.832 87.7922L238.684 93.1202C238.684 97.2642 239.942 99.3362 242.458 99.3362C243.494 99.3362 244.481 99.1389 245.418 98.7442C246.405 98.3495 247.465 97.8068 248.6 97.1162C249.932 96.3268 250.87 95.9322 251.412 95.9322C252.251 95.9322 252.67 96.3762 252.67 97.2642C252.67 97.9055 252.053 98.6702 250.82 99.5582C249.636 100.446 248.23 101.211 246.602 101.852C244.974 102.444 243.617 102.74 242.532 102.74ZM239.424 84.2402C242.729 82.9082 245.246 81.7242 246.972 80.6882C248.699 79.6522 250.006 78.3448 250.894 76.7662C251.831 75.1875 252.3 73.1155 252.3 70.5502C252.3 68.6262 251.486 67.6642 249.858 67.6642C248.428 67.6642 246.75 68.9715 244.826 71.5862C242.804 74.2008 241.176 77.6295 239.942 81.8722C239.597 83.0562 239.424 83.8455 239.424 84.2402Z" fill="#1C1917"/>
<path d="M258.458 103.184C257.768 103.184 257.422 102.74 257.422 101.852L259.124 93.0462L262.232 77.4322C263.614 70.5255 264.304 67.0722 264.304 67.0722C264.502 65.9868 264.773 65.1975 265.118 64.7042C265.464 64.2108 265.908 63.9642 266.45 63.9642C266.944 63.9642 267.314 64.0875 267.56 64.3342C267.856 64.5808 268.004 65.0248 268.004 65.6662C268.004 66.8008 267.659 68.5275 266.968 70.8462C266.623 71.9808 266.376 72.9428 266.228 73.7322C266.031 74.4228 265.809 75.2122 265.562 76.1002C265.316 76.9388 265.044 77.9255 264.748 79.0602C266.08 76.0509 267.338 73.6582 268.522 71.8822C269.706 70.0568 271.186 68.3302 272.962 66.7022C274.64 65.2715 276.317 64.5562 277.994 64.5562C279.228 64.5562 280.264 64.8275 281.102 65.3702C281.941 65.8635 282.36 66.4555 282.36 67.1462C282.36 67.6889 282.163 68.1329 281.768 68.4782C281.374 68.7742 280.88 68.9222 280.288 68.9222C279.844 68.9222 279.425 68.8235 279.03 68.6262C278.734 68.3795 278.34 68.2562 277.846 68.2562C277.205 68.2562 276.268 68.7002 275.034 69.5882C272.716 71.2655 270.742 73.4855 269.114 76.2482C267.536 78.9615 266.278 81.7242 265.34 84.5362C264.452 87.2988 263.49 90.6535 262.454 94.6002L261.788 97.3382C261.048 101.236 259.938 103.184 258.458 103.184Z" fill="#1C1917"/>
<path d="M292.412 19.0107C296.502 19.2183 299.782 22.4977 299.989 26.5879L300 27V103H294V27C294 25.8954 293.105 25 292 25H8C6.89544 25 6.00001 25.8955 6 27V130H0V27L0.0107422 26.5879C0.218317 22.4976 3.49764 19.2183 7.58789 19.0107L8 19H292L292.412 19.0107Z" fill="#D6D3D1"/>
<path d="M292.412 0.0107422C296.502 0.2183 299.782 3.49765 299.989 7.58789L300 8V103H296V8C296 5.79086 294.209 4 292 4H8C5.79088 4.00001 4.00001 5.79087 4 8V130H0V8L0.0107422 7.58789C0.218314 3.49765 3.49764 0.218297 7.58789 0.0107422L8 0H292L292.412 0.0107422Z" fill="#D6D3D1"/>
</svg>
